<svg fill="#000000" viewBox="0 0 24 24" id="whatsapp-square" data-name="Flat Line" xmlns="http://www.w3.org/2000/svg" class="icon flat-line"><g id="SVGRepo_bgCarrier" stroke-width="0"></g><g id="SVGRepo_tracerCarrier" stroke-linecap="round" stroke-linejoin="round"></g><g id="SVGRepo_iconCarrier"><path id="secondary" d="M20,3H4A1,1,0,0,0,3,4V20a1,1,0,0,0,1,1H20a1,1,0,0,0,1-1V4A1,1,0,0,0,20,3Zm-3.06,9.81a5,5,0,0,1-4,4.1,4.93,4.93,0,0,1-3.22-.47L7,17l.56-2.71a4.93,4.93,0,0,1-.47-3.22,5,5,0,0,1,9.85,1.74Z" style="fill: #2ca9bc; stroke-width: 2;"></path><path id="primary" d="M11.19,7.06a5,5,0,0,0-4.1,4,4.93,4.93,0,0,0,.47,3.22L7,17l2.71-.56a4.93,4.93,0,0,0,3.22.47,5,5,0,0,0-1.74-9.85Z" style="fill: none; stroke: #000000; stroke-linecap: round; stroke-linejoin: round; stroke-width: 2;"></path><rect id="primary-2" data-name="primary" x="3" y="3" width="18" height="18" rx="1" style="fill: none; stroke: #000000; stroke-linecap: round; stroke-linejoin: round; stroke-width: 2;"></rect></g></svg>